<svg xmlns="http://www.w3.org/2000/svg" viewBox="0 0 24 24" fill="currentColor" aria-hidden="true"><path d="M12 2.16c3.2 0 3.58.01 4.85.07 1.17.05 1.8.25 2.23.41.56.22.96.48 1.38.9.42.42.68.82.9 1.38.16.42.36 1.06.41 2.23.06 1.27.07 1.65.07 4.85s-.01 3.58-.07 4.85c-.05 1.17-.25 1.8-.41 2.23-.22.56-.48.96-.9 1.38-.42.42-.82.68-1.38.9-.42.16-1.06.36-2.23.41-1.27.06-1.65.07-4.85.07s-3.58-.01-4.85-.07c-1.17-.05-1.8-.25-2.23-.41a3.7 3.7 0 0 1-1.38-.9 3.7 3.7 0 0 1-.9-1.38c-.16-.42-.36-1.06-.41-2.23C2.17 15.58 2.16 15.2 2.16 12s.01-3.58.07-4.85c.05-1.17.25-1.8.41-2.23.22-.56.48-.96.9-1.38.42-.42.82-.68 1.38-.9.42-.16 1.06-.36 2.23-.41C8.42 2.17 8.8 2.16 12 2.16Zm0 1.94c-3.14 0-3.51.01-4.75.07-1.15.05-1.77.24-2.19.4-.55.22-.94.47-1.35.88-.41.41-.66.8-.88 1.35-.16.42-.35 1.04-.4 2.19-.06 1.24-.07 1.61-.07 4.75s.01 3.51.07 4.75c.05 1.15.24 1.77.4 2.19.22.55.47.94.88 1.35.41.41.8.66 1.35.88.42.16 1.04.35 2.19.4 1.24.06 1.61.07 4.75.07s3.51-.01 4.75-.07c1.15-.05 1.77-.24 2.19-.4.55-.22.94-.47 1.35-.88.41-.41.66-.8.88-1.35.16-.42.35-1.04.4-2.19.06-1.24.07-1.61.07-4.75s-.01-3.51-.07-4.75c-.05-1.15-.24-1.77-.4-2.19a3.6 3.6 0 0 0-.88-1.35 3.6 3.6 0 0 0-1.35-.88c-.42-.16-1.04-.35-2.19-.4-1.24-.06-1.61-.07-4.75-.07Zm0 3.3a4.6 4.6 0 1 1 0 9.2 4.6 4.6 0 0 1 0-9.2Zm0 7.59a2.99 2.99 0 1 0 0-5.98 2.99 2.99 0 0 0 0 5.98Zm5.86-7.81a1.08 1.08 0 1 1-2.15 0 1.08 1.08 0 0 1 2.15 0Z"/></svg>
